<svg width="70" height="120" viewBox="0 0 70 120" fill="none" xmlns="http://www.w3.org/2000/svg">
<path d="M27.258 92.9032V0H0.161255V120H69.8387V92.9032H27.258ZM23.3871 3.87097V94.0374L9.70126 107.723L12.438 110.46L26.1238 96.7742H65.9677V104.516H27.258V116.129H6.769L9.27158 113.626L6.5348 110.89L4.03222 113.392V98.7097H17.5806V94.8387H4.03222V90.9677H9.83868V87.0968H4.03222V83.2258H17.5806V79.3548H4.03222V75.4839H9.83868V71.6129H4.03222V67.7419H17.5806V63.871H4.03222V60H9.83868V56.129H4.03222V52.2581H17.5806V48.3871H4.03222V44.5161H9.83868V40.6452H4.03222V36.7742H17.5806V32.9032H4.03222V29.0323H9.83868V25.1613H4.03222V3.87097H23.3871ZM38.8709 108.387H42.7419V116.129H38.8709V108.387ZM35 116.129H31.129V108.387H35V116.129ZM46.6129 108.387H50.4838V116.129H46.6129V108.387ZM54.3548 108.387H58.2258V116.129H54.3548V108.387ZM62.0967 116.129V108.387H65.9677V116.129H62.0967Z" fill="#333333"/>
<path d="M13.7097 19.3548C16.9109 19.3548 19.5161 16.7497 19.5161 13.5484C19.5161 10.3471 16.9109 7.74194 13.7097 7.74194C10.5084 7.74194 7.9032 10.3471 7.9032 13.5484C7.9032 16.7497 10.5084 19.3548 13.7097 19.3548ZM13.7097 11.6129C14.778 11.6129 15.6451 12.48 15.6451 13.5484C15.6451 14.6168 14.778 15.4839 13.7097 15.4839C12.6413 15.4839 11.7742 14.6168 11.7742 13.5484C11.7742 12.48 12.6413 11.6129 13.7097 11.6129Z" fill="#333333"/>
</svg>
